<?xml version="1.0" encoding="UTF-8" standalone="no"?>
<!-- fallback image for component images. don't delete! -->
<svg xmlns="http://www.w3.org/2000/svg" viewBox="0 0 576 512">
<!--!Font Awesome Free 6.7.2 by @fontawesome - https://fontawesome.com License - 
https://fontawesome.com/license/free Copyright 2025 Fonticons, Inc.-->
  <path
     fill="#a8adb4"
     d="m 351.28888,110.94664 c 7.82222,-9.81334 6.25778,-24.106666 -3.55556,-31.999997 -9.81332,-7.893329 -24.10666,-6.25778 -32,3.555558 L 287.99999,117.20442 260.26667,82.502201 c -7.82223,-9.813338 -22.18667,-11.377778 -32,-3.555558 -9.81333,7.822221 -11.37778,22.186657 -3.55555,31.999997 L 258.84445,153.6133 91.946675,362.25329 c -5.68889,7.11111 -8.746666,15.85778 -8.746666,24.88889 v 16.78222 c 0,18.84445 15.288887,34.13333 34.133331,34.13333 h 170.66665 170.66666 c 18.84444,0 34.13334,-15.28888 34.13334,-34.13333 v -16.78222 c 0,-9.03111 -3.05779,-17.84888 -8.74667,-24.88889 L 317.15555,153.6133 Z m -63.28889,281.59999 h -84.97776 l 84.97776,-111.14667 84.97777,111.14667 z"
     id="path2"
     style="stroke-width:0.999999" />
</svg>
