<?xml version="1.0" encoding="UTF-8" standalone="no"?>
<svg
   viewBox="-40 -60 80 100"
   version="1.1"
   id="svg13"
   sodipodi:docname="logo.svg"
   inkscape:version="1.2.2 (b0a8486541, 2022-12-01)"
   xmlns:inkscape="http://www.inkscape.org/namespaces/inkscape"
   xmlns:sodipodi="http://sodipodi.sourceforge.net/DTD/sodipodi-0.dtd"
   xmlns="http://www.w3.org/2000/svg"
   xmlns:svg="http://www.w3.org/2000/svg">
  <defs
     id="defs17" />
  <sodipodi:namedview
     id="namedview15"
     pagecolor="#ffffff"
     bordercolor="#000000"
     borderopacity="0.25"
     inkscape:showpageshadow="2"
     inkscape:pageopacity="0.0"
     inkscape:pagecheckerboard="0"
     inkscape:deskcolor="#d1d1d1"
     showgrid="false"
     inkscape:zoom="5.5720014"
     inkscape:cx="18.395544"
     inkscape:cy="50.251243"
     inkscape:window-width="1920"
     inkscape:window-height="1011"
     inkscape:window-x="0"
     inkscape:window-y="0"
     inkscape:window-maximized="1"
     inkscape:current-layer="svg13" />
  <style
     id="style2">
    .bubble {
      animation: float 2s ease-out both infinite var(--delay);
    }
    @keyframes float {
      0% {
        opacity: 0;
      }
      50% {
        transform: translateY(0);
        opacity: 0;
      }
      75% {
        opacity: 1;
      }
      100% {
        opacity: 0;
        transform: translateY(-40px);
      }
    }
  </style>
  <g
     fill="currentColor"
     opacity="0.5"
     id="g10">
    <circle
       class="bubble"
       cx="0"
       cy="-10"
       r="3"
       style="--delay: 0.1s"
       id="circle4" />
    <circle
       class="bubble"
       cx="0"
       cy="-10"
       r="3"
       style="--delay: 0.4s"
       id="circle6" />
    <circle
       class="bubble"
       cx="0"
       cy="-10"
       r="3"
       style="--delay: 1.1s"
       id="circle8" />
  </g>
  <!--!Font Awesome Free 6.7.2 by @fontawesome - https://fontawesome.com License - 
https://fontawesome.com/license/free Copyright 2025 Fonticons, Inc.-->
  <path
     fill="#8ecae6"
     d="m 9.677665,-10.95689 c 1.196115,-1.500585 0.956891,-3.686216 -0.543687,-4.893201 -1.500586,-1.206985 -3.686215,-0.95689 -4.893202,0.543688 L 0,-10 -4.2407645,-15.306403 c -1.1961228,-1.500578 -3.3926238,-1.739802 -4.8932018,-0.543688 -1.5005777,1.196114 -1.7398017,3.392616 -0.5436873,4.893201 l 5.2194098,6.524264 -25.5207472,31.903656 c -0.869904,1.087374 -1.337477,2.424851 -1.337477,3.805819 v 2.566215 c 0,2.881546 2.337865,5.21941 5.21941,5.21941 H 0 26.097064 c 2.88155,0 5.219413,-2.337864 5.219413,-5.21941 v -2.566215 c 0,-1.380968 -0.467574,-2.729318 -1.337474,-3.805819 L 4.458255,-4.432626 Z M 0,32.103256 H -12.994155 L 0,15.107548 12.994165,32.103256 Z"
     id="path2"
     style="stroke-width:0.999997;fill:#023047;fill-opacity:1;stroke:#ececec;stroke-opacity:1" />
</svg>
